<svg width="50" height="50" viewBox="0 0 50 50" fill="none" xmlns="http://www.w3.org/2000/svg">
<rect width="50" height="50" rx="5" fill="#263238"/>
<path d="M14.4106 35.84C18.1173 33.6533 21.1573 31.24 23.5306 28.6C25.904 25.96 27.0906 23.4133 27.0906 20.96C27.0906 19.6533 26.6773 18.6133 25.8506 17.84C25.0506 17.04 23.9173 16.64 22.4506 16.64C21.064 16.64 19.8906 16.9067 18.9306 17.44C17.9973 17.9467 17.0773 18.6133 16.1706 19.44L14.6506 17.24C15.184 16.5733 15.944 15.8933 16.9306 15.2C17.944 14.5067 19.1173 13.9333 20.4506 13.48C21.784 13 23.1306 12.76 24.4906 12.76C26.4373 12.76 28.064 13.0933 29.3706 13.76C30.704 14.4267 31.6906 15.3067 32.3306 16.4C32.9706 17.4933 33.2906 18.7067 33.2906 20.04C33.2906 22.6 32.064 25.1733 29.6106 27.76C27.1573 30.3467 24.0373 32.72 20.2506 34.88L31.8506 33.8L33.3706 30.44L35.8906 30.96L34.7306 38H15.2506L14.4106 35.84Z" fill="#92E3A9"/>
</svg>
