<svg width="50" height="53" viewBox="0 0 50 53" fill="none" xmlns="http://www.w3.org/2000/svg">
<rect y="3" width="50" height="50" rx="5" fill="#263238"/>
<path d="M20.4319 44.4C19.6585 44.4 18.8052 44.3333 17.8719 44.2C16.9652 44.0933 16.2185 43.96 15.6319 43.8V40.84C16.7519 41.1867 17.9519 41.36 19.2319 41.36C21.0985 41.36 22.7119 41.0533 24.0719 40.44C25.4585 39.8267 26.5119 39 27.2319 37.96C27.9519 36.92 28.3119 35.7733 28.3119 34.52C28.3119 32.8133 27.8052 31.4933 26.7919 30.56C25.7785 29.6267 24.2719 29.1333 22.2719 29.08L19.8719 29.68L19.0319 27.24C20.1252 27.0533 21.2052 26.72 22.2719 26.24C23.8185 25.5467 25.0185 24.68 25.8719 23.64C26.7252 22.5733 27.1519 21.44 27.1519 20.24C27.1519 18.9067 26.7385 17.9333 25.9119 17.32C25.1119 16.7067 24.0852 16.4 22.8319 16.4C21.6585 16.4 20.5519 16.6 19.5119 17C18.4985 17.4 17.6319 17.8933 16.9119 18.48L15.5119 16.04C16.2852 15.2933 17.5385 14.56 19.2719 13.84C21.0319 13.12 22.8185 12.76 24.6319 12.76C27.1652 12.76 29.2185 13.3067 30.7919 14.4C32.3919 15.4667 33.1919 17.0933 33.1919 19.28C33.1919 21.2 32.4452 22.8933 30.9519 24.36C29.4585 25.8267 27.6319 26.9467 25.4719 27.72C25.7385 27.6933 26.1385 27.68 26.6719 27.68C29.0452 27.68 30.9652 28.28 32.4319 29.48C33.9252 30.68 34.6719 32.28 34.6719 34.28C34.6985 36.2 34.1252 37.92 32.9519 39.44C31.8052 40.9867 30.1519 42.2 27.9919 43.08C25.8319 43.96 23.3119 44.4 20.4319 44.4Z" fill="#92E3A9"/>
</svg>
